<mxfile host="65bd71144e">
    <diagram id="Vcby-pPesS-RJyGnUZok" name="第 1 页">
        <mxGraphModel dx="1252" dy="719" grid="1" gridSize="10" guides="1" tooltips="1" connect="1" arrows="1" fold="1" page="1" pageScale="1" pageWidth="1654" pageHeight="2336" math="0" shadow="0">
            <root>
                <mxCell id="0"/>
                <mxCell id="1" parent="0"/>
                <mxCell id="71" style="edgeStyle=orthogonalEdgeStyle;rounded=1;orthogonalLoop=1;jettySize=auto;html=1;entryX=0;entryY=0.5;entryDx=0;entryDy=0;strokeColor=#A7BFC9;strokeWidth=2;endArrow=block;endFill=1;" edge="1" parent="1" source="64" target="67">
                    <mxGeometry relative="1" as="geometry"/>
                </mxCell>
                <mxCell id="64" value="source 1" style="rounded=1;whiteSpace=wrap;html=1;arcSize=50;fillColor=#EDF2F4;strokeColor=#FFFFFF;strokeWidth=2;fontStyle=1" vertex="1" parent="1">
                    <mxGeometry x="80" y="140" width="110" height="40" as="geometry"/>
                </mxCell>
                <mxCell id="66" value="" style="ellipse;whiteSpace=wrap;html=1;aspect=fixed;fillColor=#6E96A6;strokeColor=#FFFFFF;strokeWidth=2;" vertex="1" parent="1">
                    <mxGeometry x="220" y="145" width="30" height="30" as="geometry"/>
                </mxCell>
                <mxCell id="72" style="edgeStyle=orthogonalEdgeStyle;rounded=1;orthogonalLoop=1;jettySize=auto;html=1;entryX=0;entryY=0.5;entryDx=0;entryDy=0;strokeColor=#A7BFC9;strokeWidth=2;endArrow=block;endFill=1;" edge="1" parent="1" source="67" target="70">
                    <mxGeometry relative="1" as="geometry"/>
                </mxCell>
                <mxCell id="67" value="Task 1" style="rounded=0;whiteSpace=wrap;html=1;fillColor=#EDF2F4;strokeColor=#FFFFFF;strokeWidth=2;fontStyle=1" vertex="1" parent="1">
                    <mxGeometry x="410" y="140" width="90" height="40" as="geometry"/>
                </mxCell>
                <mxCell id="68" value="" style="ellipse;whiteSpace=wrap;html=1;aspect=fixed;fillColor=#6E96A6;strokeColor=#FFFFFF;strokeWidth=2;" vertex="1" parent="1">
                    <mxGeometry x="280" y="145" width="30" height="30" as="geometry"/>
                </mxCell>
                <mxCell id="69" value="" style="ellipse;whiteSpace=wrap;html=1;aspect=fixed;fillColor=#6E96A6;strokeColor=#FFFFFF;strokeWidth=2;" vertex="1" parent="1">
                    <mxGeometry x="340" y="145" width="30" height="30" as="geometry"/>
                </mxCell>
                <mxCell id="73" style="edgeStyle=orthogonalEdgeStyle;rounded=1;orthogonalLoop=1;jettySize=auto;html=1;strokeColor=#A7BFC9;strokeWidth=2;endArrow=block;endFill=1;" edge="1" parent="1" source="70">
                    <mxGeometry relative="1" as="geometry">
                        <mxPoint x="610" y="160" as="targetPoint"/>
                    </mxGeometry>
                </mxCell>
                <mxCell id="70" value="" style="ellipse;whiteSpace=wrap;html=1;aspect=fixed;fillColor=#6E96A6;strokeColor=#FFFFFF;strokeWidth=2;" vertex="1" parent="1">
                    <mxGeometry x="540" y="145" width="30" height="30" as="geometry"/>
                </mxCell>
                <mxCell id="83" style="edgeStyle=orthogonalEdgeStyle;rounded=1;orthogonalLoop=1;jettySize=auto;html=1;entryX=0;entryY=0.5;entryDx=0;entryDy=0;strokeColor=#A7BFC9;strokeWidth=2;endArrow=block;endFill=1;" edge="1" parent="1" source="84" target="87">
                    <mxGeometry relative="1" as="geometry"/>
                </mxCell>
                <mxCell id="84" value="source 2" style="rounded=1;whiteSpace=wrap;html=1;arcSize=50;fillColor=#EDF2F4;strokeColor=#FFFFFF;strokeWidth=2;fontStyle=1" vertex="1" parent="1">
                    <mxGeometry x="80" y="240" width="110" height="40" as="geometry"/>
                </mxCell>
                <mxCell id="85" value="" style="ellipse;whiteSpace=wrap;html=1;aspect=fixed;fillColor=#6E96A6;strokeColor=#FFFFFF;strokeWidth=2;" vertex="1" parent="1">
                    <mxGeometry x="220" y="245" width="30" height="30" as="geometry"/>
                </mxCell>
                <mxCell id="86" style="edgeStyle=orthogonalEdgeStyle;rounded=1;orthogonalLoop=1;jettySize=auto;html=1;entryX=0;entryY=0.5;entryDx=0;entryDy=0;strokeColor=#A7BFC9;strokeWidth=2;endArrow=block;endFill=1;" edge="1" parent="1" source="87" target="91">
                    <mxGeometry relative="1" as="geometry"/>
                </mxCell>
                <mxCell id="87" value="&lt;span&gt;Task 1&lt;/span&gt;" style="rounded=0;whiteSpace=wrap;html=1;fillColor=#EDF2F4;strokeColor=#FFFFFF;strokeWidth=2;fontStyle=1" vertex="1" parent="1">
                    <mxGeometry x="410" y="240" width="90" height="40" as="geometry"/>
                </mxCell>
                <mxCell id="88" value="" style="ellipse;whiteSpace=wrap;html=1;aspect=fixed;fillColor=#6E96A6;strokeColor=#FFFFFF;strokeWidth=2;" vertex="1" parent="1">
                    <mxGeometry x="280" y="245" width="30" height="30" as="geometry"/>
                </mxCell>
                <mxCell id="89" value="" style="ellipse;whiteSpace=wrap;html=1;aspect=fixed;fillColor=#6E96A6;strokeColor=#FFFFFF;strokeWidth=2;" vertex="1" parent="1">
                    <mxGeometry x="340" y="245" width="30" height="30" as="geometry"/>
                </mxCell>
                <mxCell id="90" style="edgeStyle=orthogonalEdgeStyle;rounded=1;orthogonalLoop=1;jettySize=auto;html=1;strokeColor=#A7BFC9;strokeWidth=2;endArrow=block;endFill=1;" edge="1" parent="1" source="91">
                    <mxGeometry relative="1" as="geometry">
                        <mxPoint x="610" y="260" as="targetPoint"/>
                    </mxGeometry>
                </mxCell>
                <mxCell id="91" value="" style="ellipse;whiteSpace=wrap;html=1;aspect=fixed;fillColor=#6E96A6;strokeColor=#FFFFFF;strokeWidth=2;" vertex="1" parent="1">
                    <mxGeometry x="540" y="245" width="30" height="30" as="geometry"/>
                </mxCell>
                <mxCell id="92" value="" style="shape=cylinder3;whiteSpace=wrap;html=1;boundedLbl=1;backgroundOutline=1;size=15;fillColor=#EDF2F4;strokeColor=#FFFFFF;strokeWidth=2;" vertex="1" parent="1">
                    <mxGeometry x="410" y="20" width="90" height="80" as="geometry"/>
                </mxCell>
                <mxCell id="93" value="" style="whiteSpace=wrap;html=1;aspect=fixed;fillColor=#345253;strokeColor=#FFFFFF;strokeWidth=2;" vertex="1" parent="1">
                    <mxGeometry x="440" y="45" width="30" height="30" as="geometry"/>
                </mxCell>
                <mxCell id="94" value="" style="shape=cylinder3;whiteSpace=wrap;html=1;boundedLbl=1;backgroundOutline=1;size=15;fillColor=#EDF2F4;strokeColor=#FFFFFF;strokeWidth=2;" vertex="1" parent="1">
                    <mxGeometry x="410" y="390" width="90" height="80" as="geometry"/>
                </mxCell>
                <mxCell id="95" value="" style="whiteSpace=wrap;html=1;aspect=fixed;fillColor=#345253;strokeColor=#FFFFFF;strokeWidth=2;" vertex="1" parent="1">
                    <mxGeometry x="440" y="415" width="30" height="30" as="geometry"/>
                </mxCell>
                <mxCell id="98" style="edgeStyle=orthogonalEdgeStyle;rounded=1;orthogonalLoop=1;jettySize=auto;html=1;entryX=0;entryY=0.5;entryDx=0;entryDy=0;strokeColor=#A7BFC9;strokeWidth=2;endArrow=block;endFill=1;" edge="1" parent="1" source="99" target="102">
                    <mxGeometry relative="1" as="geometry"/>
                </mxCell>
                <mxCell id="99" value="source 3" style="rounded=1;whiteSpace=wrap;html=1;arcSize=50;fillColor=#EDF2F4;strokeColor=#FFFFFF;strokeWidth=2;fontStyle=1" vertex="1" parent="1">
                    <mxGeometry x="80" y="300" width="110" height="40" as="geometry"/>
                </mxCell>
                <mxCell id="100" value="" style="ellipse;whiteSpace=wrap;html=1;aspect=fixed;fillColor=#6E96A6;strokeColor=#FFFFFF;strokeWidth=2;" vertex="1" parent="1">
                    <mxGeometry x="220" y="305" width="30" height="30" as="geometry"/>
                </mxCell>
                <mxCell id="101" style="edgeStyle=orthogonalEdgeStyle;rounded=1;orthogonalLoop=1;jettySize=auto;html=1;entryX=0;entryY=0.5;entryDx=0;entryDy=0;strokeColor=#A7BFC9;strokeWidth=2;endArrow=block;endFill=1;" edge="1" parent="1" source="102" target="106">
                    <mxGeometry relative="1" as="geometry"/>
                </mxCell>
                <mxCell id="102" value="&lt;span&gt;Task 1&lt;/span&gt;" style="rounded=0;whiteSpace=wrap;html=1;fillColor=#EDF2F4;strokeColor=#FFFFFF;strokeWidth=2;fontStyle=1" vertex="1" parent="1">
                    <mxGeometry x="410" y="300" width="90" height="40" as="geometry"/>
                </mxCell>
                <mxCell id="103" value="" style="ellipse;whiteSpace=wrap;html=1;aspect=fixed;fillColor=#6E96A6;strokeColor=#FFFFFF;strokeWidth=2;" vertex="1" parent="1">
                    <mxGeometry x="280" y="305" width="30" height="30" as="geometry"/>
                </mxCell>
                <mxCell id="104" value="" style="ellipse;whiteSpace=wrap;html=1;aspect=fixed;fillColor=#6E96A6;strokeColor=#FFFFFF;strokeWidth=2;" vertex="1" parent="1">
                    <mxGeometry x="340" y="305" width="30" height="30" as="geometry"/>
                </mxCell>
                <mxCell id="105" style="edgeStyle=orthogonalEdgeStyle;rounded=1;orthogonalLoop=1;jettySize=auto;html=1;strokeColor=#A7BFC9;strokeWidth=2;endArrow=block;endFill=1;" edge="1" parent="1" source="106">
                    <mxGeometry relative="1" as="geometry">
                        <mxPoint x="610" y="320" as="targetPoint"/>
                    </mxGeometry>
                </mxCell>
                <mxCell id="106" value="" style="ellipse;whiteSpace=wrap;html=1;aspect=fixed;fillColor=#6E96A6;strokeColor=#FFFFFF;strokeWidth=2;" vertex="1" parent="1">
                    <mxGeometry x="540" y="305" width="30" height="30" as="geometry"/>
                </mxCell>
                <mxCell id="110" style="edgeStyle=orthogonalEdgeStyle;rounded=1;orthogonalLoop=1;jettySize=auto;html=1;entryX=0.5;entryY=0;entryDx=0;entryDy=0;startArrow=block;startFill=1;endArrow=block;endFill=1;strokeColor=#A7BFC9;strokeWidth=2;" edge="1" parent="1" source="107" target="95">
                    <mxGeometry relative="1" as="geometry"/>
                </mxCell>
                <mxCell id="107" value="" style="rounded=1;whiteSpace=wrap;html=1;strokeWidth=1;fillColor=none;dashed=1;" vertex="1" parent="1">
                    <mxGeometry x="395" y="220" width="120" height="135" as="geometry"/>
                </mxCell>
                <mxCell id="109" style="edgeStyle=orthogonalEdgeStyle;rounded=1;orthogonalLoop=1;jettySize=auto;html=1;startArrow=block;startFill=1;endArrow=block;endFill=1;strokeColor=#A7BFC9;strokeWidth=2;" edge="1" parent="1" source="108" target="93">
                    <mxGeometry relative="1" as="geometry"/>
                </mxCell>
                <mxCell id="108" value="" style="rounded=1;whiteSpace=wrap;html=1;strokeWidth=1;fillColor=none;dashed=1;" vertex="1" parent="1">
                    <mxGeometry x="395" y="132.5" width="120" height="55" as="geometry"/>
                </mxCell>
                <mxCell id="111" value="Task Slot 1" style="text;html=1;strokeColor=none;fillColor=none;align=center;verticalAlign=middle;whiteSpace=wrap;rounded=0;dashed=1;fontStyle=2" vertex="1" parent="1">
                    <mxGeometry x="500" y="108" width="70" height="20" as="geometry"/>
                </mxCell>
                <mxCell id="112" value="Task Slot 2" style="text;html=1;strokeColor=none;fillColor=none;align=center;verticalAlign=middle;whiteSpace=wrap;rounded=0;dashed=1;fontStyle=2" vertex="1" parent="1">
                    <mxGeometry x="500" y="360" width="70" height="20" as="geometry"/>
                </mxCell>
            </root>
        </mxGraphModel>
    </diagram>
</mxfile>